<svg width="5527" height="1618" viewBox="0 0 5527 1618" fill="none" xmlns="http://www.w3.org/2000/svg">
<rect width="5527" height="1024" transform="translate(0 594)" fill="white"/>
<g clip-path="url(#clip0_38_493)">
<path d="M590.9 1018C591.285 1023.02 591.51 1028.46 591.51 1034.41C591.51 1034.41 590.883 1032.53 589.447 1030.24C590.481 1036.07 593.541 1051.51 599.745 1068.73C606.959 1088.77 618.443 1111.12 635.777 1123.38C646.75 1117.83 656.202 1113.02 659.05 1111.51C659.074 1111.35 659.088 1111.25 659.088 1111.25L659.44 1111.3C665.57 1108 666.514 1109.41 660.382 1113.19C660.129 1113.35 659.773 1113.56 659.335 1113.81C658.184 1119.42 654.566 1133.08 645.589 1138.38C645.383 1145.14 643.05 1153.46 633.965 1158.01C633.965 1158.01 617.929 1152.34 602.833 1150.46C602.833 1150.46 605.687 1147.13 608.53 1141.54C598.988 1146.69 591.983 1150.46 591.983 1150.46L591.512 1158.47L557.076 1176.4C553.305 1192.91 538.208 1212.25 525.471 1221.21C512.733 1230.17 475.471 1232.06 444.337 1234.42C413.203 1236.78 328.767 1241.03 327.351 1237.72C326.07 1234.74 313.251 1203.67 308.698 1192.13L293.825 1191.68C293.214 1191.66 292.724 1191.17 292.724 1190.55V1182.53C292.724 1182.23 292.851 1181.93 293.064 1181.72C293.283 1181.51 293.581 1181.4 293.885 1181.4L303.379 1181.62C299.851 1176.48 295.747 1172.16 295.747 1172.16L285.368 1162.25L281.171 1145.82C270.682 1141.99 270.124 1133.16 270.148 1131.58C270.148 1131.42 270.155 1131.33 270.155 1131.32L270.157 1131.33L270.509 1131.35C283.238 1105.9 274.765 1003.43 274.754 1003.28L274.673 1002.93C289.463 999.498 345.102 950.283 371.864 925.935C379.128 919.334 384.278 914.557 385.954 912.998C385.802 911.128 385.761 910.042 385.842 909.878C385.932 909.702 386.17 910.61 386.532 912.463L386.543 912.449V912.454L387.026 912.967C387.026 912.967 386.9 913.081 386.686 913.281C387.511 917.658 388.871 926.04 390.595 937.223L390.887 937.111L397.776 954.709L410.373 956.109C410.373 956.109 445.751 971.674 433.487 1017.9C433.487 1017.9 430.17 1013.17 423.108 1012.71C417.252 1012.33 409.579 1014.61 402.484 1017.47C403.846 1026.89 405.228 1036.5 406.607 1046.11L432.072 1046.68C497.168 1082.53 460.846 1143.85 460.846 1143.85C462.605 1132.85 438.659 1137.81 420.289 1143.14C421.979 1155.36 423.346 1165.42 424.252 1172.29L439.62 1171.21L438.676 1167.44L448.712 1167.06C455.327 1158.84 460.508 1143.76 460.513 1143.74L461.181 1143.96C461.164 1143.99 456.212 1158.53 449.64 1167.02L487.905 1165.56C482.282 1148.18 481.116 1121.67 481.114 1102.49C481.114 1091.56 481.495 1083.05 481.651 1079.99C450.349 1046.59 425.955 1030.57 413.001 1023.55C406.329 1019.93 402.722 1018.71 402.71 1018.71L402.938 1018.04C402.995 1018.06 434.448 1028.74 481.703 1078.99C481.713 1078.84 481.72 1078.73 481.72 1078.73V1078.74L482.426 1078.78C482.426 1078.78 482.407 1079.11 482.376 1079.71C490.244 1088.11 498.542 1097.61 507.207 1108.33C505.754 1092.94 503.952 1076.77 502.147 1061.74C498.345 1030.04 494.553 1003.49 494.046 999.966C447.778 971.566 390.379 930.93 390.358 930.923L390.767 930.345C390.784 930.359 398.426 935.768 410.412 944.036C422.394 952.306 438.695 963.417 455.97 974.8C468.608 983.125 481.769 991.589 494.143 999.193L494.245 999.167C499.291 997.802 511.607 989.309 522.547 981.179C528.886 976.474 534.769 971.906 538.621 968.877C537.111 965.332 535.278 961.703 533.019 957.996L544.732 960.224C545.129 943.231 545.502 932.305 545.809 931.803C546.13 931.278 546.351 942.548 546.499 960.562L572.644 965.541C572.644 965.541 587.296 975.822 590.773 1016.38C594.582 1022.93 599.485 1030.95 605.368 1039.76C620.567 1062.5 642.25 1090.3 668.148 1110.55L667.711 1111.11C632.311 1083.43 604.831 1041.77 590.9 1018ZM408.336 1058.19C411.734 1081.99 415.02 1105.28 417.795 1125.15C423.167 1112.83 426.576 1098.07 424.76 1085.36C423.152 1074.1 415.836 1064.89 408.336 1058.19ZM407.542 1160.36L411.368 1169.75C411.045 1163.8 410.602 1155.6 410.087 1146.28C408.634 1146.75 407.3 1147.19 406.106 1147.6L406.696 1160.33L407.542 1160.36ZM405.293 1145.29L402.656 1088.33L400.944 1149.13C402.358 1148.16 403.818 1146.86 405.293 1145.29ZM400.937 1149.41L400.915 1150.17L402.507 1148.85C401.866 1149.07 401.341 1149.26 400.937 1149.41ZM402.216 1078.83L400.991 1052.35C400.656 1052.11 400.32 1051.88 399.992 1051.65L399.206 1059.66L396.257 1154.05L400.19 1150.78L400.221 1149.66C400.078 1149.71 399.995 1149.75 399.995 1149.75L400.223 1149.6L402.216 1078.83ZM389.469 1159.71L395.532 1154.66L398.167 1070.26L389.398 1159.71L389.469 1159.71ZM397.572 1045.9L398.928 1045.93L399.398 1030.92L397.572 1045.9ZM399.636 1045.94L399.84 1045.95L400.423 1040.02L400.064 1032.26L399.636 1045.94ZM400.549 1045.97L400.697 1045.97L400.652 1044.94L400.549 1045.97ZM402.484 1069.28L402.924 1053.76C402.52 1053.46 402.12 1053.16 401.728 1052.87L402.484 1069.28ZM402.021 1046C401.743 1043.81 401.467 1041.63 401.188 1039.45L401.134 1040.02L401.407 1045.99L402.021 1046ZM398.188 1035.01L396.215 1045.87L396.864 1045.88L398.188 1035.01ZM395.672 1048.85L375.606 1159.21L383.027 1159.47L396.445 1049.32C396.178 1049.16 395.924 1049 395.672 1048.85ZM383.736 1159.5L388.688 1159.68L398.499 1059.62L398.775 1050.82C398.2 1050.44 397.645 1050.08 397.103 1049.74L383.736 1159.5ZM390.524 1159.75L395.366 1159.92L395.501 1155.6L390.524 1159.75ZM396.072 1159.95L399.928 1160.09L400.166 1151.71L396.226 1155L396.072 1159.95ZM400.635 1160.12L405.985 1160.31L405.409 1147.84C405.06 1147.96 404.724 1148.07 404.404 1148.18L400.889 1151.11L400.635 1160.12ZM409.727 1139.77C408.61 1119.7 407.269 1096.06 406.191 1078.72C405.311 1071.84 404.417 1064.83 403.516 1057.77L402.924 1078.78L405.968 1144.56C407.223 1143.15 408.484 1141.54 409.727 1139.77ZM410.381 1138.81C411.377 1137.34 412.354 1135.76 413.313 1134.1C411.608 1120.91 409.634 1105.59 407.542 1089.28C408.075 1098.13 408.64 1107.9 409.192 1117.65C409.601 1124.84 410.003 1132.02 410.381 1138.81ZM398.618 1019.1C389.702 1023.04 382.542 1027.34 382.542 1027.34C382.542 1027.34 391.285 1016.44 396.676 1003.65C394.919 989.611 393.256 976.217 391.787 964.176L327.017 1034.22C327.659 1035.68 328.451 1038.25 329.238 1042.2C330.093 1046.47 332.902 1066.49 335.95 1088.86L372.399 1139.84L372.713 1140C372.689 1140.02 365.715 1153.83 355.964 1158.5L374.891 1159.18L395.026 1048.45C392.044 1046.67 390.089 1045.73 390.089 1045.73L395.499 1045.86L398.685 1028.33L399.332 1024.76C399.092 1022.87 398.852 1020.99 398.618 1019.1ZM355.082 1158.13C364.267 1154.19 371.302 1141.2 372.018 1139.81L342.465 1137.35C343.278 1143.46 343.975 1148.73 344.498 1152.68L353.767 1153.76L355.082 1158.13ZM400.466 982.052C399.593 977.054 397.67 972.577 395.348 968.713C396.618 977.273 397.969 986.439 399.364 995.99C400.668 991.219 401.234 986.434 400.466 982.052ZM390.872 939.003C391.587 943.646 392.362 948.737 393.18 954.194L396.983 954.62L390.872 939.003ZM331.283 1082.34C328.474 1058.1 325.994 1036.88 325.7 1035.12L325.44 1034.88L325.64 1034.67C325.379 1032.65 325.859 1032.03 326.684 1033.54L391.606 963.33C386.277 956.622 380.654 952.804 380.654 952.804L390.541 953.902C388.263 935.004 386.608 920.543 386.031 913.89C376.084 923.108 294.297 998.723 274.973 1003.58L331.283 1082.34ZM332.067 1144.79L333.484 1151.4L339.307 1152.08C338.905 1148.57 338.304 1143.32 337.572 1136.94L270.862 1131.38C270.862 1131.39 270.857 1131.45 270.857 1131.58C270.881 1133.04 271.254 1141.19 280.958 1144.98L279.707 1140.08C282.065 1139.13 332.067 1144.79 332.067 1144.79ZM297.89 1183.75L294.989 1183.69V1189.45L297.89 1189.54V1183.75ZM303.789 1183.89L299.733 1183.79V1189.59L303.789 1189.71V1183.89ZM307.803 1189.83C307.708 1189.58 307.617 1189.35 307.541 1189.14C307.056 1187.85 306.391 1186.51 305.63 1185.18V1189.77L307.803 1189.83ZM412.733 1173.09L418.313 1172.7C417.558 1166.89 416.297 1157.17 414.697 1144.81C413.325 1145.23 412.02 1145.65 410.784 1146.05C411.364 1156.57 411.858 1165.68 412.189 1171.76L412.733 1173.09ZM494.943 999.685C512.034 1010.16 527.537 1018.91 537.959 1023.27C540.492 1017.93 542.954 1010.87 543.887 1002.49C543.958 998.516 544.03 994.626 544.099 990.848C543.611 984.254 542.056 977.114 538.915 969.545C528.503 977.731 503.727 996.792 494.943 999.685ZM508.012 1109.33C515.028 1118.06 522.282 1127.6 529.735 1138C534.35 1132.65 538.81 1125.27 542.134 1117.09C542.325 1103.3 542.536 1088.14 542.767 1072.6C532.226 1055.56 507.403 1046.24 507.403 1046.24L543.174 1045.8C543.254 1040.57 543.335 1035.37 543.421 1030.23C536.359 1032.53 531.133 1034.41 531.133 1034.41C531.133 1034.41 534.386 1030.61 537.657 1023.91C527.209 1019.53 511.804 1010.84 494.831 1000.45C495.959 1008.34 503.651 1062.63 508.012 1109.33ZM546.64 1101.95C547.86 1095.4 548.095 1088.85 546.899 1082.83C546.84 1082.53 546.757 1082.23 546.686 1081.94C546.674 1088.74 546.659 1095.43 546.64 1101.95ZM501.887 1153.29C501.887 1153.29 505.206 1153.19 510.232 1153.03C509.938 1140.98 508.834 1125.77 507.325 1109.61C498.603 1098.77 490.248 1089.18 482.325 1080.7C482.151 1084.22 481.821 1092.29 481.823 1102.49C481.819 1121.7 483.013 1148.33 488.633 1165.53L500.472 1165.08L501.887 1153.29ZM541.666 1152.04C541.718 1147.93 541.78 1143.45 541.845 1138.65C538.364 1139.66 535.108 1140.66 532.27 1141.56C534.488 1144.7 536.723 1147.9 538.973 1151.2L538.388 1151.6C536.088 1148.24 533.815 1144.99 531.552 1141.79C525.51 1143.71 521.509 1145.14 521.509 1145.14C524.007 1143.76 526.649 1141.49 529.255 1138.56C522.017 1128.45 514.965 1119.15 508.131 1110.62C509.587 1126.38 510.649 1141.21 510.939 1153.02C519.134 1152.77 531.449 1152.39 541.666 1152.04ZM610.996 1135.91C612.78 1131.18 614.154 1125.55 614.154 1119.32L615.224 1119.63C607.616 1110.76 601.257 1100.48 598.088 1095.03C601.058 1117.77 588.534 1137.37 588.534 1137.37C590.07 1127.29 566.195 1131.91 546.517 1137.32C546.493 1142.51 546.469 1147.38 546.443 1151.88C551.969 1151.69 556.418 1151.51 558.494 1151.4C566.982 1150.92 590.567 1141.96 590.567 1141.96L591.513 1145.74C591.513 1145.74 600.002 1141.46 610.996 1135.91ZM638.849 1126.27C638.517 1126.07 638.188 1125.86 637.86 1125.65C637.722 1125.73 637.589 1125.8 637.451 1125.88L638.849 1126.27ZM638.6 1125.25C639.311 1125.69 640.015 1126.15 640.742 1126.56L640.628 1126.77L644.344 1127.81C644.344 1127.81 645.638 1132.07 645.604 1137.56C650.032 1134.77 653.13 1129.78 655.22 1124.84C656.927 1120.81 657.957 1116.87 658.518 1114.28C654.871 1116.36 647.335 1120.49 638.6 1125.25ZM588.486 1028.81C585.759 1025.1 581.016 1021.09 573.587 1022.15C566.53 1023.16 555.688 1026.31 546.724 1029.16C546.726 1034.63 546.726 1040.17 546.726 1045.75L553.797 1045.66C583.838 1058.8 595.028 1076.65 597.802 1093.12C599.36 1095.86 602.275 1100.81 606.075 1106.38C609.078 1110.8 612.63 1115.59 616.468 1119.98L633.212 1124.68C633.826 1124.37 634.437 1124.06 635.041 1123.76C601.098 1099.37 589.884 1037.22 588.486 1028.81Z" fill="black"/>
</g>
<rect y="594" width="5527" height="1024" fill="black"/>
<g clip-path="url(#clip1_38_493)">
<path d="M5527 0L5503 42.7C5479 85 5431 171 5383 192C5335 213 5287 171 5239 170.7C5191 171 5143 213 5095 218.7C5047 224 4999 192 4951 192C4903 192 4855 224 4807 240C4759 256 4711 256 4663 245.3C4615 235 4567 213 4519 176C4471 139 4423 85 4375 74.7C4327 64 4279 96 4231 133.3C4183 171 4135 213 4111 234.7L4087 256V320H4111C4135 320 4183 320 4231 320C4279 320 4327 320 4375 320C4423 320 4471 320 4519 320C4567 320 4615 320 4663 320C4711 320 4759 320 4807 320C4855 320 4903 320 4951 320C4999 320 5047 320 5095 320C5143 320 5191 320 5239 320C5287 320 5335 320 5383 320C5431 320 5479 320 5503 320H5527V0Z" fill="black"/>
</g>
<path d="M4177 288.271L4153 277.571C4129 267.271 4081 245.271 4033 213.571C3985 181.271 3937 139.271 3889 149.571C3841 160.271 3793 224.271 3745 224.271C3697 224.271 3649 160.271 3601 149.571C3553 139.271 3505 181.271 3457 218.971C3409 256.271 3361 288.271 3313 277.571C3265 267.271 3217 213.271 3169 208.271C3121 203.271 3073 245.271 3025 218.971C2977 192.271 2929 96.2713 2881 74.9713C2833 53.2713 2785 107.271 2761 133.571L2737 160.271V320.271H2761C2785 320.271 2833 320.271 2881 320.271C2929 320.271 2977 320.271 3025 320.271C3073 320.271 3121 320.271 3169 320.271C3217 320.271 3265 320.271 3313 320.271C3361 320.271 3409 320.271 3457 320.271C3505 320.271 3553 320.271 3601 320.271C3649 320.271 3697 320.271 3745 320.271C3793 320.271 3841 320.271 3889 320.271C3937 320.271 3985 320.271 4033 320.271C4081 320.271 4129 320.271 4153 320.271H4177V288.271Z" fill="black"/>
<path d="M1440 127.945L1422.9 117.245C1405.7 106.945 1371 84.9451 1337 85.2451C1302.9 84.9451 1269 106.945 1234 149.245C1200 191.945 1166 255.945 1131 245.245C1097.1 234.945 1063 148.945 1029 95.9451C994.3 42.9451 960 20.9451 926 37.2451C891.4 52.9451 857 106.945 823 127.945C788.6 148.945 754 138.945 720 122.645C685.7 106.945 651 84.9451 617 95.9451C582.9 106.945 549 148.945 514 186.645C480 223.945 446 255.945 411 245.245C377.1 234.945 343 180.945 309 181.245C274.3 180.945 240 234.945 206 234.645C171.4 234.945 137 180.945 103 154.645C68.6 127.945 34 127.945 17 127.945H0V319.945H17.1C34.3 319.945 69 319.945 103 319.945C137.1 319.945 171 319.945 206 319.945C240 319.945 274 319.945 309 319.945C342.9 319.945 377 319.945 411 319.945C445.7 319.945 480 319.945 514 319.945C548.6 319.945 583 319.945 617 319.945C651.4 319.945 686 319.945 720 319.945C754.3 319.945 789 319.945 823 319.945C857.1 319.945 891 319.945 926 319.945C960 319.945 994 319.945 1029 319.945C1062.9 319.945 1097 319.945 1131 319.945C1165.7 319.945 1200 319.945 1234 319.945C1268.6 319.945 1303 319.945 1337 319.945C1371.4 319.945 1406 319.945 1423 319.945H1440V127.945Z" fill="black"/>
<path d="M1301 95.9455L1325 85.2455C1349 74.9455 1397 52.9455 1445 79.9455C1493 106.946 1541 180.946 1589 218.646C1637 255.946 1685 255.946 1733 218.646C1781 180.946 1829 106.946 1877 106.646C1925 106.946 1973 180.946 2021 191.946C2069 202.946 2117 148.946 2165 117.246C2213 84.9455 2261 74.9455 2309 101.246C2357 127.946 2405 191.946 2453 218.646C2501 244.946 2549 234.946 2597 218.646C2645 202.946 2693 180.946 2717 170.646L2741 159.946V319.946H2717C2693 319.946 2645 319.946 2597 319.946C2549 319.946 2501 319.946 2453 319.946C2405 319.946 2357 319.946 2309 319.946C2261 319.946 2213 319.946 2165 319.946C2117 319.946 2069 319.946 2021 319.946C1973 319.946 1925 319.946 1877 319.946C1829 319.946 1781 319.946 1733 319.946C1685 319.946 1637 319.946 1589 319.946C1541 319.946 1493 319.946 1445 319.946C1397 319.946 1349 319.946 1325 319.946H1301V95.9455Z" fill="black"/>
<rect y="284" width="5527" height="350" fill="black"/>
<defs>
<clipPath id="clip0_38_493">
<rect width="400" height="330.73" fill="white" transform="matrix(-1 0 0 1 669.148 909.03)"/>
</clipPath>
<clipPath id="clip1_38_493">
<rect width="1440" height="320" fill="white" transform="matrix(-1 0 0 1 5527 0)"/>
</clipPath>
</defs>
</svg>
